HIERARCHY
ROOT Hips
{
    OFFSET 0.000000 0.000000 0.000000
    CHANNELS 6 Xposition Yposition Zposition Zrotation Xrotation Yrotation
    JOINT Spine
    {
        OFFSET -0.000000 14.517291 0.000000
        CHANNELS 3 Zrotation Xrotation Yrotation
        JOINT Spine1
        {
            OFFSET -0.000000 37.558300 0.000000
            CHANNELS 3 Zrotation Xrotation Yrotation
            JOINT Neck
            {
                OFFSET -0.000000 37.404057 3.400369
                CHANNELS 3 Zrotation Xrotation Yrotation
                JOINT Head
                {
                    OFFSET -0.000000 24.785618 -3.540803
                    CHANNELS 3 Zrotation Xrotation Yrotation
                    End Site
                    {
                        OFFSET -0.000000 35.408028 0.000000
                    }
                }
            }
            JOINT LeftShoulder
            {
                OFFSET 6.992933 33.973492 -0.192664
                CHANNELS 3 Zrotation Xrotation Yrotation
                JOINT LeftArm
                {
                    OFFSET 21.527611 0.000000 0.000000
                    CHANNELS 3 Zrotation Xrotation Yrotation
                    JOINT LeftForeArm
                    {
                        OFFSET 56.353916 0.000000 0.000000
                        CHANNELS 3 Zrotation Xrotation Yrotation
                        JOINT LeftHand
                        {
                            OFFSET 47.774071 0.000000 0.000000
                            CHANNELS 3 Zrotation Xrotation Yrotation
                            End Site
                            {
                                OFFSET 26.556021 0.000000 0.000000
                            }
                        }
                    }
                }
            }
            JOINT RightShoulder
            {
                OFFSET -7.065357 33.973492 -0.192664
                CHANNELS 3 Zrotation Xrotation Yrotation
                JOINT RightArm
                {
                    OFFSET -21.527611 0.000000 0.000000
                    CHANNELS 3 Zrotation Xrotation Yrotation
                    JOINT RightForeArm
                    {
                        OFFSET -56.353916 0.000000 0.000000
                        CHANNELS 3 Zrotation Xrotation Yrotation
                        JOINT RightHand
                        {
                            OFFSET -47.774071 0.000000 0.000000
                            CHANNELS 3 Zrotation Xrotation Yrotation
                            End Site
                            {
                                OFFSET -26.556021 0.000000 0.000000
                            }
                        }
                    }
                }
            }
        }
    }
    JOINT LeftUpLeg
    {
        OFFSET 17.704014 0.000000 0.000000
        CHANNELS 3 Zrotation Xrotation Yrotation
        JOINT LeftLeg
        {
            OFFSET -0.000000 -81.181816 0.000000
            CHANNELS 3 Zrotation Xrotation Yrotation
            JOINT LeftFoot
            {
                OFFSET -0.000000 -62.821102 0.000000
                CHANNELS 3 Zrotation Xrotation Yrotation
                JOINT LeftToeBase
                {
                    OFFSET -0.000000 -11.507608 26.556021
                    CHANNELS 3 Zrotation Xrotation Yrotation
                    End Site
                    {
                        OFFSET -0.000000 0.000000 7.081605
                    }
                }
            }
        }
    }
    JOINT RightUpLeg
    {
        OFFSET -17.704014 0.000000 0.000000
        CHANNELS 3 Zrotation Xrotation Yrotation
        JOINT RightLeg
        {
            OFFSET -0.000000 -81.181816 0.000000
            CHANNELS 3 Zrotation Xrotation Yrotation
            JOINT RightFoot
            {
                OFFSET -0.000000 -62.821102 0.000000
                CHANNELS 3 Zrotation Xrotation Yrotation
                JOINT RightToeBase
                {
                    OFFSET -0.000000 -11.507608 26.556021
                    CHANNELS 3 Zrotation Xrotation Yrotation
                    End Site
                    {
                        OFFSET -0.000000 0.000000 7.081605
                    }
                }
            }
        }
    }
}
MOTION
Frames:    12
Frame Time:    0.008333
-8.457461    157.683136    -93.737000    -2.764414    -5.600785    45.559578    0.822312    -3.539019    1.460400    -0.314975    4.780655    0.485954    -7.180691    4.557237    -20.733406    20.243256    1.380197    -18.292608    9.989141    3.070042    -12.643272    -34.550388    29.069553    8.867401    -14.051693    12.822153    -117.738213    10.687737    -11.188042    -5.065341    -22.209976    -6.618415    -5.841384    19.575109    -25.001925    50.928429    -6.416809    0.561573    21.147633    -8.177642    -0.779090    34.447060    22.015289    1.196627    -2.624585    -10.381449    25.129480    -19.092062    -2.122156    -24.872738    42.339802    0.000000    0.000000    0.000000    -11.033007    -13.547704    -20.191912    4.477092    13.578974    -18.801485    6.258796    11.181575    -9.047551    0.000000    0.000000    0.000000    
-8.429110    157.684631    -93.737671    -2.731030    -5.614091    45.616993    0.815595    -3.553866    1.446615    -0.352605    4.788404    0.483148    -7.077049    4.585033    -20.696171    20.138496    1.390654    -18.281496    9.777290    3.129785    -12.673707    -34.519878    28.482346    7.372445    -13.785313    12.148567    -117.879013    10.809886    -11.444734    -4.712801    -22.165165    -6.599154    -5.798286    19.522278    -24.970476    50.875160    -6.430092    0.542034    21.124769    -8.143804    -0.787917    34.460697    22.001440    1.209415    -2.632142    -10.376527    25.129652    -19.123550    -2.134768    -24.884937    42.355698    0.000000    0.000000    0.000000    -11.054979    -13.491352    -20.249819    4.456933    13.574821    -18.797646    6.256415    11.166362    -9.029350    0.000000    0.000000    0.000000    
-8.407213    157.684616    -93.745094    -2.702973    -5.616389    45.678497    0.818851    -3.601211    1.438302    -0.418005    4.831754    0.483075    -6.992601    4.616298    -20.664810    20.081190    1.405261    -18.269381    9.548359    3.167256    -12.729831    -34.655685    28.128679    5.926693    -13.268540    10.958750    -118.079849    10.815409    -11.810039    -4.419609    -22.093422    -6.586669    -5.754649    19.453661    -24.942513    50.825104    -6.455901    0.521182    21.076197    -8.123359    -0.799808    34.452126    21.984705    1.206286    -2.652501    -10.371959    25.134413    -19.159410    -2.107767    -24.850533    42.330082    0.000000    0.000000    0.000000    -11.086435    -13.449250    -20.281971    4.448825    13.571807    -18.815201    6.269512    11.158041    -9.025891    0.000000    0.000000    0.000000    
-8.385554    157.682663    -93.744232    -2.671331    -5.628702    45.752190    0.815362    -3.621409    1.431374    -0.475155    4.845395    0.483322    -6.886981    4.635322    -20.640144    20.001665    1.425525    -18.269608    9.318575    3.199610    -12.799135    -34.750786    27.690708    4.434001    -12.914639    9.967827    -118.159149    10.815522    -12.224362    -4.430338    -22.013256    -6.562109    -5.731785    19.380657    -24.911360    50.778015    -6.467951    0.490292    21.044483    -8.093783    -0.821604    34.459240    21.979359    1.206714    -2.693647    -10.387377    25.135525    -19.151142    -2.133765    -24.874920    42.322788    0.000000    0.000000    0.000000    -11.110464    -13.390254    -20.312756    4.441866    13.567689    -18.847532    6.270805    11.130417    -9.012246    0.000000    0.000000    0.000000    
-8.369095    157.683258    -93.749123    -2.648408    -5.633915    45.828850    0.822875    -3.646956    1.420142    -0.552272    4.852755    0.482668    -6.778313    4.620792    -20.609835    19.907951    1.479737    -18.269722    9.118360    3.288783    -12.865664    -34.901157    27.366905    2.823770    -12.299008    8.639848    -118.296074    10.663753    -12.480993    -3.812035    -21.941120    -6.553893    -5.706357    19.341232    -24.874025    50.730190    -6.476635    0.482648    21.017611    -8.083014    -0.827126    34.476730    21.973083    1.191111    -2.722627    -10.390574    25.145029    -19.183125    -2.130614    -24.865568    42.313652    0.000000    0.000000    0.000000    -11.136948    -13.345549    -20.340883    4.442261    13.557640    -18.868744    6.259414    11.118378    -9.033060    0.000000    0.000000    0.000000    
-8.351048    157.683594    -93.750847    -2.617442    -5.642262    45.910965    0.821450    -3.671690    1.412794    -0.628527    4.861720    0.483495    -6.679760    4.659476    -20.593729    19.860947    1.491441    -18.273748    8.937412    3.413017    -12.941169    -34.953762    26.955757    1.110494    -11.792380    7.463508    -118.261635    10.315808    -12.736874    -3.646702    -21.842628    -6.529664    -5.663401    19.250963    -24.827391    50.655293    -6.513808    0.455085    20.977348    -8.054660    -0.841098    34.473583    21.965105    1.186851    -2.755557    -10.396042    25.139751    -19.213179    -2.124780    -24.856304    42.310081    0.000000    0.000000    0.000000    -11.162150    -13.292470    -20.384117    4.423519    13.559047    -18.867205    6.288950    11.085384    -9.073050    0.000000    0.000000    0.000000    
-8.332768    157.681519    -93.749428    -2.581410    -5.653253    46.007298    0.837768    -3.701793    1.396728    -0.759374    4.891410    0.483807    -6.519442    4.668112    -20.567888    19.774591    1.506472    -18.277809    8.809308    3.536122    -13.048012    -34.979050    26.517708    -0.652702    -11.423063    6.452626    -118.173141    10.382642    -13.053469    -3.446919    -21.711746    -6.528119    -5.619734    19.167084    -24.794022    50.579956    -6.519926    0.422527    20.935806    -8.043394    -0.872057    34.481628    21.954681    1.175575    -2.786148    -10.392497    25.153002    -19.217796    -2.139898    -24.847139    42.252285    0.000000    0.000000    0.000000    -11.195537    -13.230798    -20.422567    4.418048    13.561527    -18.876850    6.288813    11.058331    -9.093819    0.000000    0.000000    0.000000    
-8.319039    157.679291    -93.745293    -2.545574    -5.669552    46.103058    0.835322    -3.717827    1.384768    -0.828717    4.905476    0.482819    -6.442854    4.663269    -20.568567    19.723913    1.563870    -18.302778    8.616970    3.677890    -13.157538    -35.040966    26.228035    -2.392242    -10.944782    5.136802    -118.075539    10.121008    -13.470004    -3.197938    -21.635235    -6.501915    -5.601264    19.122633    -24.763800    50.545033    -6.542902    0.399522    20.880793    -8.048175    -0.895818    34.485157    21.951584    1.176167    -2.815208    -10.382999    25.148987    -19.258253    -2.119866    -24.799002    42.197094    0.000000    0.000000    0.000000    -11.219263    -13.166869    -20.487886    4.396844    13.567897    -18.876316    6.319273    11.023904    -9.114097    0.000000    0.000000    0.000000    
-8.305794    157.678772    -93.738327    -2.505355    -5.693965    46.209007    0.832611    -3.702155    1.373067    -0.902108    4.899616    0.482146    -6.339075    4.623302    -20.563499    19.649971    1.608914    -18.323315    8.442007    3.861436    -13.262693    -34.992271    25.876890    -4.263758    -10.602673    4.010992    -117.892776    9.921175    -13.909128    -3.007584    -21.537271    -6.498527    -5.640593    19.058823    -24.682632    50.537189    -6.572623    0.341464    20.844076    -8.009826    -0.938408    34.482151    21.953114    1.177960    -2.862629    -10.384973    25.143764    -19.260767    -2.154997    -24.815289    42.176392    0.000000    0.000000    0.000000    -11.240566    -13.089087    -20.523144    4.389987    13.566716    -18.896730    6.318122    10.981616    -9.135176    0.000000    0.000000    0.000000    
-8.297651    157.673782    -93.731125    -2.460880    -5.719296    46.317646    0.819179    -3.726140    1.356137    -0.976890    4.945412    0.480327    -6.199935    4.640251    -20.559795    19.560251    1.599335    -18.345034    8.285007    4.052274    -13.439733    -34.976173    25.543610    -6.120253    -10.001961    2.849617    -117.614716    9.913804    -13.937986    -2.869695    -21.407459    -6.508919    -5.606336    18.963076    -24.637226    50.471455    -6.593987    0.291270    20.798237    -7.994356    -0.983504    34.493988    21.957733    1.176689    -2.901035    -10.383303    25.157261    -19.296125    -2.136584    -24.773026    42.108036    0.000000    0.000000    0.000000    -11.264685    -13.010075    -20.571062    4.380322    13.573869    -18.924486    6.326920    10.938686    -9.143112    0.000000    0.000000    0.000000    
-8.291617    157.669388    -93.723999    -2.415215    -5.749440    46.439064    0.806114    -3.741730    1.339841    -1.043445    4.999113    0.478412    -6.073938    4.643157    -20.567059    19.490828    1.584632    -18.372694    8.140685    4.266001    -13.637824    -34.918964    25.229183    -8.036600    -9.663341    1.640259    -117.341934    9.772081    -14.442054    -2.582619    -21.282875    -6.512331    -5.611304    18.867182    -24.565966    50.435749    -6.653215    0.200950    20.742111    -7.961481    -1.057296    34.511356    21.965530    1.167455    -2.958143    -10.385605    25.176180    -19.349262    -2.134024    -24.766582    42.103874    0.000000    0.000000    0.000000    -11.289901    -12.921196    -20.602928    4.384278    13.573150    -18.950348    6.344233    10.897949    -9.190046    0.000000    0.000000    0.000000    
-8.291428    157.663177    -93.713058    -2.377875    -5.781268    46.559799    0.797890    -3.765189    1.322523    -1.118056    5.070187    0.476701    -5.897880    4.592777    -20.568184    19.338213    1.582325    -18.408850    7.996429    4.474659    -13.869180    -34.890259    24.968325    -9.896131    -9.434799    0.337890    -117.125984    9.672284    -15.231009    -2.205118    -21.150169    -6.537316    -5.638301    18.812494    -24.541557    50.436459    -6.645015    0.145115    20.689281    -7.957508    -1.116937    34.516014    21.983717    1.151103    -3.004524    -10.383020    25.200043    -19.413446    -2.148577    -24.790649    42.110065    0.000000    0.000000    0.000000    -11.302938    -12.847328    -20.651917    4.372300    13.592191    -18.961134    6.364375    10.846467    -9.225703    0.000000    0.000000    0.000000    
